<svg width="1020" height="170" viewBox="0 0 1020 170" fill="none" xmlns="http://www.w3.org/2000/svg">
<rect x="298" y="36" width="62" height="91" fill="white"/>
<path d="M323 120H313V110H323V120Z" fill="#9ED5FF"/>
<path d="M333 110H323V100H333V110Z" fill="#9ED5FF"/>
<path d="M343 100H333V90H343V100Z" fill="#9ED5FF"/>
<path d="M353 90H343V80H353V90Z" fill="#9ED5FF"/>
<path d="M30 40H20V30H30V40Z" fill="#9ED5FF"/>
<path d="M990 30H980V20H990V30Z" fill="#9ED5FF"/>
<path d="M50 20H40V10H50V20Z" fill="#9ED5FF"/>
<path d="M30 120H20V40H30V120Z" fill="#FDFDFD"/>
<path d="M320 50H330V60H340V70H350V80H340V90H330V100H320V110H310V40H320V50Z" fill="#FDFDFD"/>
<path d="M970 20H50V10H970V20Z" fill="#FDFDFD"/>
<path d="M980 140H970V130H980V140Z" fill="#57B6FF"/>
<path d="M40 130H30V120H40V130Z" fill="#57B6FF"/>
<path d="M990 130H980V120H990V130Z" fill="#57B6FF"/>
<path d="M1000 40H990V30H1000V40Z" fill="#57B6FF"/>
<path d="M40 30H30V20H40V30Z" fill="#57B6FF"/>
<path d="M980 20H970V10H980V20Z" fill="#57B6FF"/>
<path fill-rule="evenodd" clip-rule="evenodd" d="M980 30H990V40H1000V120H980V130H970V140H40V120H30V30H40V20H980V30ZM313 120H323V110H333V100H343V90H353V70H343V60H333V50H323V40H313V120Z" fill="#0090FF"/>
<path d="M980 140V150H40V140H980Z" fill="#1975DE"/>
<path d="M40 140H30V130H40V140Z" fill="#1975DE"/>
<path d="M990 140H980V130H990V140Z" fill="#1975DE"/>
<path d="M30 130H20V120H30V130Z" fill="#1975DE"/>
<path d="M1000 130H990V120H1000V130Z" fill="#1975DE"/>
<path fill-rule="evenodd" clip-rule="evenodd" d="M990 10H1000V20H1010V140H1000V150H990V160H30V150H20V140H10V20H20V10H30V0H990V10ZM40 20H30V30H20V130H30V140H40V150H980V140H990V130H1000V30H990V20H980V10H40V20Z" fill="#103167"/>
<g opacity="0.5">
<path d="M990 160V170H30V160H990Z" fill="#103168"/>
<path d="M30 160H20V150H30V160Z" fill="#103168"/>
<path d="M1000 160H990V150H1000V160Z" fill="#103168"/>
<path d="M20 150H10V140H20V150Z" fill="#103168"/>
<path d="M1010 150H1000V140H1010V150Z" fill="#103168"/>
</g>
<g filter="url(#filter0_i_201_2746)">
<path d="M431.374 46.2708V52.3642H413.093V46.2708H431.374ZM455.747 46.2708V113.298H443.56V46.2708H455.747ZM437.467 58.4576V64.551H431.374V70.6444H437.467V82.8312H431.374V95.018H437.467V107.205H407V95.018H419.187V88.9246H413.093V82.8312H407V70.6444H413.093V64.551H407V58.4576H437.467ZM419.187 70.6444V82.8312H425.28V70.6444H419.187ZM493.015 46.2708V52.3642H499.108V82.8312H493.015V88.9246H474.735V82.8312H468.641V52.3642H474.735V46.2708H493.015ZM517.389 46.2708V113.298H505.202V46.2708H517.389ZM480.828 58.4576V76.7378H486.922V58.4576H480.828ZM499.108 95.018V107.205H468.641V95.018H499.108ZM579.738 46.2708V76.7378H585.831V107.205H573.644V82.8312H567.551V107.205H555.364V82.8312H561.457V64.551H567.551V46.2708H579.738ZM604.111 46.2708V113.298H591.924V46.2708H604.111ZM647.472 46.2708V58.4576H635.286V64.551H641.379V70.6444H647.472V82.8312H635.286V70.6444H629.192V82.8312H617.005V70.6444H623.099V64.551H629.192V58.4576H617.005V46.2708H647.472ZM665.753 46.2708V58.4576H671.846V70.6444H665.753V82.8312H653.566V46.2708H665.753ZM665.753 88.9246V113.298H653.566V101.111H623.099V88.9246H665.753Z" fill="white"/>
</g>
<defs>
<filter id="filter0_i_201_2746" x="407" y="46.2708" width="264.846" height="67.0275" filterUnits="userSpaceOnUse" color-interpolation-filters="sRGB">
<feFlood flood-opacity="0" result="BackgroundImageFix"/>
<feBlend mode="normal" in="SourceGraphic" in2="BackgroundImageFix" result="shape"/>
<feColorMatrix in="SourceAlpha" type="matrix" values="0 0 0 0 0 0 0 0 0 0 0 0 0 0 0 0 0 0 127 0" result="hardAlpha"/>
<feOffset dx="-4" dy="-4"/>
<feComposite in2="hardAlpha" operator="arithmetic" k2="-1" k3="1"/>
<feColorMatrix type="matrix" values="0 0 0 0 0.619608 0 0 0 0 0.835294 0 0 0 0 1 0 0 0 1 0"/>
<feBlend mode="normal" in2="shape" result="effect1_innerShadow_201_2746"/>
</filter>
</defs>
</svg>
